<mxfile host="app.diagrams.net" agent="Mozilla/5.0 (Windows NT 10.0; Win64; x64) AppleWebKit/537.36 (KHTML, like Gecko) Chrome/138.0.0.0 Safari/537.36" version="27.2.0">
  <diagram name="Página-1" id="ch0Adqv4J3ruIvG1Xc4J">
    <mxGraphModel grid="1" page="1" gridSize="10" guides="1" tooltips="1" connect="1" arrows="1" fold="1" pageScale="1" pageWidth="827" pageHeight="1169" math="0" shadow="0">
      <root>
        <mxCell id="0" />
        <mxCell id="1" parent="0" />
        <mxCell id="M6st6zHzKp3r40aG8Qjw-1" value="Administrador" style="html=1;whiteSpace=wrap;" vertex="1" parent="1">
          <mxGeometry x="80" y="40" width="110" height="50" as="geometry" />
        </mxCell>
        <mxCell id="M6st6zHzKp3r40aG8Qjw-2" value="Sistema&lt;span style=&quot;color: rgba(0, 0, 0, 0); font-family: monospace; font-size: 0px; text-align: start; text-wrap-mode: nowrap;&quot;&gt;%3CmxGraphModel%3E%3Croot%3E%3CmxCell%20id%3D%220%22%2F%3E%3CmxCell%20id%3D%221%22%20parent%3D%220%22%2F%3E%3CmxCell%20id%3D%222%22%20value%3D%22Usuario%22%20style%3D%22html%3D1%3BwhiteSpace%3Dwrap%3B%22%20vertex%3D%221%22%20parent%3D%221%22%3E%3CmxGeometry%20x%3D%2270%22%20y%3D%2240%22%20width%3D%22110%22%20height%3D%2250%22%20as%3D%22geometry%22%2F%3E%3C%2FmxCell%3E%3C%2Froot%3E%3C%2FmxGraphModel%3E&lt;/span&gt;" style="html=1;whiteSpace=wrap;" vertex="1" parent="1">
          <mxGeometry x="286.13" y="30" width="110" height="50" as="geometry" />
        </mxCell>
        <mxCell id="M6st6zHzKp3r40aG8Qjw-3" value="Base de datos" style="html=1;whiteSpace=wrap;" vertex="1" parent="1">
          <mxGeometry x="485" y="40" width="110" height="50" as="geometry" />
        </mxCell>
        <mxCell id="M6st6zHzKp3r40aG8Qjw-4" value="Administrador" style="html=1;whiteSpace=wrap;" vertex="1" parent="1">
          <mxGeometry x="86.13" y="1150" width="110" height="50" as="geometry" />
        </mxCell>
        <mxCell id="M6st6zHzKp3r40aG8Qjw-5" style="edgeStyle=orthogonalEdgeStyle;rounded=0;orthogonalLoop=1;jettySize=auto;html=1;endArrow=none;startFill=0;dashed=1;" edge="1" parent="1" source="M6st6zHzKp3r40aG8Qjw-6" target="M6st6zHzKp3r40aG8Qjw-2">
          <mxGeometry relative="1" as="geometry">
            <mxPoint x="422.5" y="535" as="targetPoint" />
            <Array as="points" />
          </mxGeometry>
        </mxCell>
        <mxCell id="M6st6zHzKp3r40aG8Qjw-6" value="Sistema&lt;span style=&quot;color: rgba(0, 0, 0, 0); font-family: monospace; font-size: 0px; text-align: start; text-wrap-mode: nowrap;&quot;&gt;%3CmxGraphModel%3E%3Croot%3E%3CmxCell%20id%3D%220%22%2F%3E%3CmxCell%20id%3D%221%22%20parent%3D%220%22%2F%3E%3CmxCell%20id%3D%222%22%20value%3D%22Usuario%22%20style%3D%22html%3D1%3BwhiteSpace%3Dwrap%3B%22%20vertex%3D%221%22%20parent%3D%221%22%3E%3CmxGeometry%20x%3D%2270%22%20y%3D%2240%22%20width%3D%22110%22%20height%3D%2250%22%20as%3D%22geometry%22%2F%3E%3C%2FmxCell%3E%3C%2Froot%3E%3C%2FmxGraphModel%3E&lt;/span&gt;" style="html=1;whiteSpace=wrap;" vertex="1" parent="1">
          <mxGeometry x="286.13" y="1150" width="110" height="50" as="geometry" />
        </mxCell>
        <mxCell id="M6st6zHzKp3r40aG8Qjw-7" value="Base de datos" style="html=1;whiteSpace=wrap;" vertex="1" parent="1">
          <mxGeometry x="486.13" y="1150" width="110" height="50" as="geometry" />
        </mxCell>
        <mxCell id="M6st6zHzKp3r40aG8Qjw-8" value="" style="endArrow=none;dashed=1;html=1;rounded=0;entryX=0.5;entryY=1;entryDx=0;entryDy=0;exitX=0.5;exitY=0;exitDx=0;exitDy=0;" edge="1" parent="1" source="H9gai09tJhatRi1qsD84-20" target="M6st6zHzKp3r40aG8Qjw-3">
          <mxGeometry width="50" height="50" relative="1" as="geometry">
            <mxPoint x="540" y="501" as="sourcePoint" />
            <mxPoint x="355" y="110" as="targetPoint" />
          </mxGeometry>
        </mxCell>
        <mxCell id="M6st6zHzKp3r40aG8Qjw-10" value="" style="html=1;points=[[0,0,0,0,5],[0,1,0,0,-5],[1,0,0,0,5],[1,1,0,0,-5]];perimeter=orthogonalPerimeter;outlineConnect=0;targetShapes=umlLifeline;portConstraint=eastwest;newEdgeStyle={&quot;curved&quot;:0,&quot;rounded&quot;:0};" vertex="1" parent="1">
          <mxGeometry x="335" y="241" width="10" height="30" as="geometry" />
        </mxCell>
        <mxCell id="M6st6zHzKp3r40aG8Qjw-11" value="" style="endArrow=classic;html=1;rounded=0;entryX=0;entryY=0;entryDx=0;entryDy=5;entryPerimeter=0;" edge="1" parent="1" target="M6st6zHzKp3r40aG8Qjw-10">
          <mxGeometry width="50" height="50" relative="1" as="geometry">
            <mxPoint x="145" y="246" as="sourcePoint" />
            <mxPoint x="245" y="221" as="targetPoint" />
          </mxGeometry>
        </mxCell>
        <mxCell id="M6st6zHzKp3r40aG8Qjw-12" value="3. Pulsa botón &quot;Crear evento&quot;" style="text;html=1;align=center;verticalAlign=middle;whiteSpace=wrap;rounded=0;" vertex="1" parent="1">
          <mxGeometry x="135" y="221" width="211" height="20" as="geometry" />
        </mxCell>
        <mxCell id="M6st6zHzKp3r40aG8Qjw-13" value="" style="endArrow=classic;html=1;rounded=0;fontSize=12;startSize=8;endSize=8;edgeStyle=orthogonalEdgeStyle;entryX=1;entryY=0;entryDx=0;entryDy=5;entryPerimeter=0;" edge="1" parent="1" target="M6st6zHzKp3r40aG8Qjw-35">
          <mxGeometry width="50" height="50" relative="1" as="geometry">
            <mxPoint x="330" y="305" as="sourcePoint" />
            <mxPoint x="148.75" y="295" as="targetPoint" />
            <Array as="points">
              <mxPoint x="345" y="305" />
            </Array>
          </mxGeometry>
        </mxCell>
        <mxCell id="M6st6zHzKp3r40aG8Qjw-14" value="4. Mostrar formulario&amp;nbsp;" style="text;html=1;align=center;verticalAlign=middle;whiteSpace=wrap;rounded=0;" vertex="1" parent="1">
          <mxGeometry x="155" y="280" width="170" height="20" as="geometry" />
        </mxCell>
        <mxCell id="M6st6zHzKp3r40aG8Qjw-15" value="" style="endArrow=none;dashed=1;html=1;rounded=0;exitX=0.5;exitY=0;exitDx=0;exitDy=0;" edge="1" parent="1" target="M6st6zHzKp3r40aG8Qjw-35" source="M6st6zHzKp3r40aG8Qjw-49">
          <mxGeometry width="50" height="50" relative="1" as="geometry">
            <mxPoint x="136.13000000000005" y="950.0000000000001" as="sourcePoint" />
            <mxPoint x="136.95" y="720.36" as="targetPoint" />
          </mxGeometry>
        </mxCell>
        <mxCell id="M6st6zHzKp3r40aG8Qjw-16" value="" style="endArrow=classic;html=1;rounded=0;fontSize=12;startSize=8;endSize=8;curved=1;entryX=0;entryY=0;entryDx=0;entryDy=5;entryPerimeter=0;" edge="1" parent="1" target="M6st6zHzKp3r40aG8Qjw-46">
          <mxGeometry width="50" height="50" relative="1" as="geometry">
            <mxPoint x="341.13" y="854" as="sourcePoint" />
            <mxPoint x="531.13" y="863.6899999999998" as="targetPoint" />
          </mxGeometry>
        </mxCell>
        <mxCell id="M6st6zHzKp3r40aG8Qjw-17" value="14. Guardar evento" style="text;html=1;align=center;verticalAlign=middle;whiteSpace=wrap;rounded=0;" vertex="1" parent="1">
          <mxGeometry x="366.75" y="829" width="120" height="20" as="geometry" />
        </mxCell>
        <mxCell id="M6st6zHzKp3r40aG8Qjw-18" value="" style="endArrow=classic;html=1;rounded=0;fontSize=12;startSize=8;endSize=8;curved=1;dashed=1;" edge="1" parent="1">
          <mxGeometry width="50" height="50" relative="1" as="geometry">
            <mxPoint x="333.63" y="1109" as="sourcePoint" />
            <mxPoint x="146.13" y="1109" as="targetPoint" />
          </mxGeometry>
        </mxCell>
        <mxCell id="M6st6zHzKp3r40aG8Qjw-19" value="18. Mostrar mensaje de éxito: Evento creado exitosamente" style="text;html=1;align=center;verticalAlign=middle;whiteSpace=wrap;rounded=0;" vertex="1" parent="1">
          <mxGeometry x="153.63" y="1079" width="172.5" height="20" as="geometry" />
        </mxCell>
        <mxCell id="M6st6zHzKp3r40aG8Qjw-21" value="" style="endArrow=classic;html=1;rounded=0;fontSize=12;startSize=8;endSize=8;curved=1;entryX=0;entryY=0;entryDx=0;entryDy=5;entryPerimeter=0;exitX=0.088;exitY=1.25;exitDx=0;exitDy=0;exitPerimeter=0;" edge="1" parent="1" target="M6st6zHzKp3r40aG8Qjw-37" source="M6st6zHzKp3r40aG8Qjw-22">
          <mxGeometry width="50" height="50" relative="1" as="geometry">
            <mxPoint x="121.5" y="555" as="sourcePoint" />
            <mxPoint x="127.75" y="560" as="targetPoint" />
          </mxGeometry>
        </mxCell>
        <mxCell id="M6st6zHzKp3r40aG8Qjw-22" value="9. Seleccionar recursos" style="text;html=1;align=center;verticalAlign=middle;whiteSpace=wrap;rounded=0;" vertex="1" parent="1">
          <mxGeometry x="131.13" y="530" width="190" height="20" as="geometry" />
        </mxCell>
        <mxCell id="M6st6zHzKp3r40aG8Qjw-23" value="" style="endArrow=classic;html=1;rounded=0;fontSize=12;startSize=8;endSize=8;curved=1;entryX=0;entryY=0;entryDx=0;entryDy=5;entryPerimeter=0;" edge="1" parent="1" target="M6st6zHzKp3r40aG8Qjw-38">
          <mxGeometry width="50" height="50" relative="1" as="geometry">
            <mxPoint x="140" y="645" as="sourcePoint" />
            <mxPoint x="327.13" y="644.58" as="targetPoint" />
          </mxGeometry>
        </mxCell>
        <mxCell id="M6st6zHzKp3r40aG8Qjw-25" value="11. Pulsar el botón &quot;Confirmar&quot;&amp;nbsp; &amp;nbsp;" style="text;html=1;align=center;verticalAlign=middle;whiteSpace=wrap;rounded=0;" vertex="1" parent="1">
          <mxGeometry x="146.51" y="620" width="171.25" height="20" as="geometry" />
        </mxCell>
        <mxCell id="M6st6zHzKp3r40aG8Qjw-26" value="12. Válida el evento y recursos" style="text;html=1;align=center;verticalAlign=middle;whiteSpace=wrap;rounded=0;" vertex="1" parent="1">
          <mxGeometry x="381.44" y="684" width="140" height="20" as="geometry" />
        </mxCell>
        <mxCell id="M6st6zHzKp3r40aG8Qjw-30" value="[Datos inválidos]" style="text;html=1;align=center;verticalAlign=middle;whiteSpace=wrap;rounded=0;" vertex="1" parent="1">
          <mxGeometry x="278.63" y="719" width="117.5" height="30" as="geometry" />
        </mxCell>
        <mxCell id="M6st6zHzKp3r40aG8Qjw-33" value="15. Corfirmación&amp;nbsp;" style="text;html=1;align=center;verticalAlign=middle;whiteSpace=wrap;rounded=0;" vertex="1" parent="1">
          <mxGeometry x="352.1299999999999" y="889" width="169.38" height="30" as="geometry" />
        </mxCell>
        <mxCell id="M6st6zHzKp3r40aG8Qjw-34" value="" style="endArrow=none;dashed=1;html=1;rounded=0;exitX=0.418;exitY=-0.012;exitDx=0;exitDy=0;exitPerimeter=0;" edge="1" parent="1" source="M6st6zHzKp3r40aG8Qjw-57" target="M6st6zHzKp3r40aG8Qjw-1">
          <mxGeometry width="50" height="50" relative="1" as="geometry">
            <mxPoint x="134" y="290" as="sourcePoint" />
            <mxPoint x="135" y="200" as="targetPoint" />
          </mxGeometry>
        </mxCell>
        <mxCell id="M6st6zHzKp3r40aG8Qjw-35" value="" style="html=1;points=[[0,0,0,0,5],[0,1,0,0,-5],[1,0,0,0,5],[1,1,0,0,-5]];perimeter=orthogonalPerimeter;outlineConnect=0;targetShapes=umlLifeline;portConstraint=eastwest;newEdgeStyle={&quot;curved&quot;:0,&quot;rounded&quot;:0};" vertex="1" parent="1">
          <mxGeometry x="130" y="300" width="10" height="30" as="geometry" />
        </mxCell>
        <mxCell id="M6st6zHzKp3r40aG8Qjw-37" value="" style="html=1;points=[[0,0,0,0,5],[0,1,0,0,-5],[1,0,0,0,5],[1,1,0,0,-5]];perimeter=orthogonalPerimeter;outlineConnect=0;targetShapes=umlLifeline;portConstraint=eastwest;newEdgeStyle={&quot;curved&quot;:0,&quot;rounded&quot;:0};" vertex="1" parent="1">
          <mxGeometry x="331.25" y="550" width="10" height="30" as="geometry" />
        </mxCell>
        <mxCell id="M6st6zHzKp3r40aG8Qjw-38" value="" style="html=1;points=[[0,0,0,0,5],[0,1,0,0,-5],[1,0,0,0,5],[1,1,0,0,-5]];perimeter=orthogonalPerimeter;outlineConnect=0;targetShapes=umlLifeline;portConstraint=eastwest;newEdgeStyle={&quot;curved&quot;:0,&quot;rounded&quot;:0};" vertex="1" parent="1">
          <mxGeometry x="332.13" y="640" width="10" height="30" as="geometry" />
        </mxCell>
        <mxCell id="M6st6zHzKp3r40aG8Qjw-40" value="" style="endArrow=classic;html=1;rounded=0;fontSize=12;startSize=8;endSize=8;curved=1;entryX=1;entryY=0;entryDx=0;entryDy=5;entryPerimeter=0;" edge="1" parent="1" target="M6st6zHzKp3r40aG8Qjw-50">
          <mxGeometry width="50" height="50" relative="1" as="geometry">
            <mxPoint x="541.13" y="914" as="sourcePoint" />
            <mxPoint x="356.13" y="919" as="targetPoint" />
          </mxGeometry>
        </mxCell>
        <mxCell id="M6st6zHzKp3r40aG8Qjw-41" value="13. Notificación de error: Datos inválidos" style="text;html=1;align=center;verticalAlign=middle;whiteSpace=wrap;rounded=0;" vertex="1" parent="1">
          <mxGeometry x="143.62" y="759" width="190" height="20" as="geometry" />
        </mxCell>
        <mxCell id="M6st6zHzKp3r40aG8Qjw-42" value="" style="html=1;points=[[0,0,0,0,5],[0,1,0,0,-5],[1,0,0,0,5],[1,1,0,0,-5]];perimeter=orthogonalPerimeter;outlineConnect=0;targetShapes=umlLifeline;portConstraint=eastwest;newEdgeStyle={&quot;curved&quot;:0,&quot;rounded&quot;:0};" vertex="1" parent="1">
          <mxGeometry x="131.13" y="759" width="10" height="30" as="geometry" />
        </mxCell>
        <mxCell id="M6st6zHzKp3r40aG8Qjw-43" value="" style="endArrow=classic;html=1;rounded=0;fontSize=12;startSize=8;endSize=8;edgeStyle=orthogonalEdgeStyle;dashed=1;" edge="1" parent="1">
          <mxGeometry width="50" height="50" relative="1" as="geometry">
            <mxPoint x="223.62" y="779" as="sourcePoint" />
            <mxPoint x="141.13" y="779" as="targetPoint" />
            <Array as="points">
              <mxPoint x="333.6" y="779" />
            </Array>
          </mxGeometry>
        </mxCell>
        <mxCell id="M6st6zHzKp3r40aG8Qjw-44" value="alt" style="shape=umlFrame;whiteSpace=wrap;html=1;pointerEvents=0;" vertex="1" parent="1">
          <mxGeometry x="112.38" y="720" width="460" height="79" as="geometry" />
        </mxCell>
        <mxCell id="M6st6zHzKp3r40aG8Qjw-46" value="" style="html=1;points=[[0,0,0,0,5],[0,1,0,0,-5],[1,0,0,0,5],[1,1,0,0,-5]];perimeter=orthogonalPerimeter;outlineConnect=0;targetShapes=umlLifeline;portConstraint=eastwest;newEdgeStyle={&quot;curved&quot;:0,&quot;rounded&quot;:0};" vertex="1" parent="1">
          <mxGeometry x="536.13" y="849" width="10" height="30" as="geometry" />
        </mxCell>
        <mxCell id="M6st6zHzKp3r40aG8Qjw-47" value="" style="html=1;points=[[0,0,0,0,5],[0,1,0,0,-5],[1,0,0,0,5],[1,1,0,0,-5]];perimeter=orthogonalPerimeter;outlineConnect=0;targetShapes=umlLifeline;portConstraint=eastwest;newEdgeStyle={&quot;curved&quot;:0,&quot;rounded&quot;:0};" vertex="1" parent="1">
          <mxGeometry x="536.13" y="849" width="10" height="30" as="geometry" />
        </mxCell>
        <mxCell id="M6st6zHzKp3r40aG8Qjw-50" value="" style="html=1;points=[[0,0,0,0,5],[0,1,0,0,-5],[1,0,0,0,5],[1,1,0,0,-5]];perimeter=orthogonalPerimeter;outlineConnect=0;targetShapes=umlLifeline;portConstraint=eastwest;newEdgeStyle={&quot;curved&quot;:0,&quot;rounded&quot;:0};" vertex="1" parent="1">
          <mxGeometry x="337.38" y="909" width="10" height="30" as="geometry" />
        </mxCell>
        <mxCell id="M6st6zHzKp3r40aG8Qjw-51" value="" style="html=1;points=[[0,0,0,0,5],[0,1,0,0,-5],[1,0,0,0,5],[1,1,0,0,-5]];perimeter=orthogonalPerimeter;outlineConnect=0;targetShapes=umlLifeline;portConstraint=eastwest;newEdgeStyle={&quot;curved&quot;:0,&quot;rounded&quot;:0};" vertex="1" parent="1">
          <mxGeometry x="335.25" y="121" width="10" height="30" as="geometry" />
        </mxCell>
        <mxCell id="M6st6zHzKp3r40aG8Qjw-52" value="" style="endArrow=classic;html=1;rounded=0;entryX=0;entryY=0;entryDx=0;entryDy=5;entryPerimeter=0;" edge="1" parent="1" target="M6st6zHzKp3r40aG8Qjw-51">
          <mxGeometry width="50" height="50" relative="1" as="geometry">
            <mxPoint x="145.25" y="126" as="sourcePoint" />
            <mxPoint x="245.25" y="101" as="targetPoint" />
          </mxGeometry>
        </mxCell>
        <mxCell id="M6st6zHzKp3r40aG8Qjw-53" value="1. Acceder al apartado &quot;Administración de eventos&quot;" style="text;html=1;align=center;verticalAlign=middle;whiteSpace=wrap;rounded=0;" vertex="1" parent="1">
          <mxGeometry x="153.25" y="101" width="176.75" height="20" as="geometry" />
        </mxCell>
        <mxCell id="M6st6zHzKp3r40aG8Qjw-54" value="" style="endArrow=classic;html=1;rounded=0;endFill=1;entryX=1;entryY=0;entryDx=0;entryDy=5;entryPerimeter=0;" edge="1" parent="1" target="M6st6zHzKp3r40aG8Qjw-57">
          <mxGeometry width="50" height="50" relative="1" as="geometry">
            <mxPoint x="336" y="176" as="sourcePoint" />
            <mxPoint x="150" y="180" as="targetPoint" />
          </mxGeometry>
        </mxCell>
        <mxCell id="M6st6zHzKp3r40aG8Qjw-55" value="2. Mostrar apartado" style="text;html=1;align=center;verticalAlign=middle;whiteSpace=wrap;rounded=0;" vertex="1" parent="1">
          <mxGeometry x="140" y="151" width="211" height="20" as="geometry" />
        </mxCell>
        <mxCell id="M6st6zHzKp3r40aG8Qjw-56" value="" style="endArrow=none;dashed=1;html=1;rounded=0;exitX=0.418;exitY=-0.012;exitDx=0;exitDy=0;exitPerimeter=0;" edge="1" parent="1" source="M6st6zHzKp3r40aG8Qjw-35" target="M6st6zHzKp3r40aG8Qjw-57">
          <mxGeometry width="50" height="50" relative="1" as="geometry">
            <mxPoint x="134" y="331" as="sourcePoint" />
            <mxPoint x="135" y="90" as="targetPoint" />
          </mxGeometry>
        </mxCell>
        <mxCell id="M6st6zHzKp3r40aG8Qjw-57" value="" style="html=1;points=[[0,0,0,0,5],[0,1,0,0,-5],[1,0,0,0,5],[1,1,0,0,-5]];perimeter=orthogonalPerimeter;outlineConnect=0;targetShapes=umlLifeline;portConstraint=eastwest;newEdgeStyle={&quot;curved&quot;:0,&quot;rounded&quot;:0};" vertex="1" parent="1">
          <mxGeometry x="130" y="171" width="10" height="30" as="geometry" />
        </mxCell>
        <mxCell id="M6st6zHzKp3r40aG8Qjw-58" value="" style="html=1;points=[[0,0,0,0,5],[0,1,0,0,-5],[1,0,0,0,5],[1,1,0,0,-5]];perimeter=orthogonalPerimeter;outlineConnect=0;targetShapes=umlLifeline;portConstraint=eastwest;newEdgeStyle={&quot;curved&quot;:0,&quot;rounded&quot;:0};" vertex="1" parent="1">
          <mxGeometry x="336.13" y="350" width="10" height="30" as="geometry" />
        </mxCell>
        <mxCell id="M6st6zHzKp3r40aG8Qjw-59" value="" style="endArrow=classic;html=1;rounded=0;entryX=0;entryY=0;entryDx=0;entryDy=5;entryPerimeter=0;" edge="1" parent="1" target="M6st6zHzKp3r40aG8Qjw-58">
          <mxGeometry width="50" height="50" relative="1" as="geometry">
            <mxPoint x="146.13" y="355" as="sourcePoint" />
            <mxPoint x="246.13" y="330" as="targetPoint" />
          </mxGeometry>
        </mxCell>
        <mxCell id="M6st6zHzKp3r40aG8Qjw-60" value="5. Diligenciar campos" style="text;html=1;align=center;verticalAlign=middle;whiteSpace=wrap;rounded=0;" vertex="1" parent="1">
          <mxGeometry x="130.25" y="320" width="211" height="20" as="geometry" />
        </mxCell>
        <mxCell id="M6st6zHzKp3r40aG8Qjw-61" value="" style="html=1;points=[[0,0,0,0,5],[0,1,0,0,-5],[1,0,0,0,5],[1,1,0,0,-5]];perimeter=orthogonalPerimeter;outlineConnect=0;targetShapes=umlLifeline;portConstraint=eastwest;newEdgeStyle={&quot;curved&quot;:0,&quot;rounded&quot;:0};" vertex="1" parent="1">
          <mxGeometry x="336.38" y="679" width="10" height="30" as="geometry" />
        </mxCell>
        <mxCell id="M6st6zHzKp3r40aG8Qjw-62" value="" style="endArrow=classic;html=1;rounded=0;fontSize=12;startSize=8;endSize=8;edgeStyle=orthogonalEdgeStyle;entryX=1;entryY=1;entryDx=0;entryDy=-5;entryPerimeter=0;" edge="1" parent="1" source="M6st6zHzKp3r40aG8Qjw-61" target="M6st6zHzKp3r40aG8Qjw-61">
          <mxGeometry width="50" height="50" relative="1" as="geometry">
            <mxPoint x="351.13" y="669" as="sourcePoint" />
            <mxPoint x="352.38" y="684" as="targetPoint" />
            <Array as="points">
              <mxPoint x="381.13" y="684" />
              <mxPoint x="381.13" y="704" />
            </Array>
          </mxGeometry>
        </mxCell>
        <mxCell id="M6st6zHzKp3r40aG8Qjw-63" value="" style="endArrow=classic;html=1;rounded=0;fontSize=12;startSize=8;endSize=8;curved=1;entryX=0;entryY=0;entryDx=0;entryDy=5;entryPerimeter=0;" edge="1" parent="1" target="M6st6zHzKp3r40aG8Qjw-67">
          <mxGeometry width="50" height="50" relative="1" as="geometry">
            <mxPoint x="341.13" y="974" as="sourcePoint" />
            <mxPoint x="539.88" y="983.6899999999998" as="targetPoint" />
          </mxGeometry>
        </mxCell>
        <mxCell id="M6st6zHzKp3r40aG8Qjw-64" value="16. Registrar asignación de recursos" style="text;html=1;align=center;verticalAlign=middle;whiteSpace=wrap;rounded=0;" vertex="1" parent="1">
          <mxGeometry x="375.5" y="949" width="145.63" height="20" as="geometry" />
        </mxCell>
        <mxCell id="M6st6zHzKp3r40aG8Qjw-65" value="17. Confirmación" style="text;html=1;align=center;verticalAlign=middle;whiteSpace=wrap;rounded=0;" vertex="1" parent="1">
          <mxGeometry x="360.8799999999999" y="1009" width="169.38" height="30" as="geometry" />
        </mxCell>
        <mxCell id="M6st6zHzKp3r40aG8Qjw-66" value="" style="endArrow=classic;html=1;rounded=0;fontSize=12;startSize=8;endSize=8;curved=1;entryX=1;entryY=0;entryDx=0;entryDy=5;entryPerimeter=0;" edge="1" parent="1" target="M6st6zHzKp3r40aG8Qjw-69">
          <mxGeometry width="50" height="50" relative="1" as="geometry">
            <mxPoint x="531.13" y="1034" as="sourcePoint" />
            <mxPoint x="364.88" y="1039" as="targetPoint" />
          </mxGeometry>
        </mxCell>
        <mxCell id="M6st6zHzKp3r40aG8Qjw-67" value="" style="html=1;points=[[0,0,0,0,5],[0,1,0,0,-5],[1,0,0,0,5],[1,1,0,0,-5]];perimeter=orthogonalPerimeter;outlineConnect=0;targetShapes=umlLifeline;portConstraint=eastwest;newEdgeStyle={&quot;curved&quot;:0,&quot;rounded&quot;:0};" vertex="1" parent="1">
          <mxGeometry x="536.13" y="969" width="10" height="30" as="geometry" />
        </mxCell>
        <mxCell id="M6st6zHzKp3r40aG8Qjw-69" value="" style="html=1;points=[[0,0,0,0,5],[0,1,0,0,-5],[1,0,0,0,5],[1,1,0,0,-5]];perimeter=orthogonalPerimeter;outlineConnect=0;targetShapes=umlLifeline;portConstraint=eastwest;newEdgeStyle={&quot;curved&quot;:0,&quot;rounded&quot;:0};" vertex="1" parent="1">
          <mxGeometry x="337.26" y="1029" width="10" height="30" as="geometry" />
        </mxCell>
        <mxCell id="Hx--xl772vwP6PsmA_n2-1" value="CREAR EVENTO" style="rounded=0;whiteSpace=wrap;html=1;" vertex="1" parent="1">
          <mxGeometry x="75" y="-90" width="595" height="60" as="geometry" />
        </mxCell>
        <mxCell id="H9gai09tJhatRi1qsD84-1" value="" style="endArrow=classic;html=1;rounded=0;fontSize=12;startSize=8;endSize=8;curved=1;entryX=0;entryY=0;entryDx=0;entryDy=5;entryPerimeter=0;" edge="1" parent="1" target="H9gai09tJhatRi1qsD84-4">
          <mxGeometry width="50" height="50" relative="1" as="geometry">
            <mxPoint x="150" y="395" as="sourcePoint" />
            <mxPoint x="136.25" y="400" as="targetPoint" />
          </mxGeometry>
        </mxCell>
        <mxCell id="H9gai09tJhatRi1qsD84-2" value="6. Pulsar el botón &quot;Seleccionar&quot;" style="text;html=1;align=center;verticalAlign=middle;whiteSpace=wrap;rounded=0;" vertex="1" parent="1">
          <mxGeometry x="135" y="370" width="190" height="20" as="geometry" />
        </mxCell>
        <mxCell id="H9gai09tJhatRi1qsD84-3" value="" style="endArrow=classic;html=1;rounded=0;fontSize=12;startSize=8;endSize=8;curved=1;entryX=1;entryY=0;entryDx=0;entryDy=5;entryPerimeter=0;" edge="1" parent="1" target="H9gai09tJhatRi1qsD84-4">
          <mxGeometry width="50" height="50" relative="1" as="geometry">
            <mxPoint x="336.25" y="400" as="sourcePoint" />
            <mxPoint x="136.25" y="400" as="targetPoint" />
          </mxGeometry>
        </mxCell>
        <mxCell id="H9gai09tJhatRi1qsD84-4" value="" style="html=1;points=[[0,0,0,0,5],[0,1,0,0,-5],[1,0,0,0,5],[1,1,0,0,-5]];perimeter=orthogonalPerimeter;outlineConnect=0;targetShapes=umlLifeline;portConstraint=eastwest;newEdgeStyle={&quot;curved&quot;:0,&quot;rounded&quot;:0};" vertex="1" parent="1">
          <mxGeometry x="331.25" y="390" width="10" height="30" as="geometry" />
        </mxCell>
        <mxCell id="H9gai09tJhatRi1qsD84-7" value="" style="endArrow=none;dashed=1;html=1;rounded=0;exitX=0.5;exitY=0;exitDx=0;exitDy=0;" edge="1" parent="1" source="M6st6zHzKp3r40aG8Qjw-4" target="M6st6zHzKp3r40aG8Qjw-49">
          <mxGeometry width="50" height="50" relative="1" as="geometry">
            <mxPoint x="141" y="1150" as="sourcePoint" />
            <mxPoint x="133" y="430" as="targetPoint" />
          </mxGeometry>
        </mxCell>
        <mxCell id="M6st6zHzKp3r40aG8Qjw-49" value="" style="html=1;points=[[0,0,0,0,5],[0,1,0,0,-5],[1,0,0,0,5],[1,1,0,0,-5]];perimeter=orthogonalPerimeter;outlineConnect=0;targetShapes=umlLifeline;portConstraint=eastwest;newEdgeStyle={&quot;curved&quot;:0,&quot;rounded&quot;:0};" vertex="1" parent="1">
          <mxGeometry x="138" y="1099" width="10" height="30" as="geometry" />
        </mxCell>
        <mxCell id="H9gai09tJhatRi1qsD84-11" value="" style="endArrow=classic;html=1;rounded=0;fontSize=12;startSize=8;endSize=8;curved=1;entryX=0;entryY=0;entryDx=0;entryDy=5;entryPerimeter=0;exitX=0.088;exitY=1.25;exitDx=0;exitDy=0;exitPerimeter=0;" edge="1" parent="1" source="H9gai09tJhatRi1qsD84-12" target="H9gai09tJhatRi1qsD84-14">
          <mxGeometry width="50" height="50" relative="1" as="geometry">
            <mxPoint x="124.00999999999999" y="605" as="sourcePoint" />
            <mxPoint x="130.26" y="610" as="targetPoint" />
          </mxGeometry>
        </mxCell>
        <mxCell id="H9gai09tJhatRi1qsD84-12" value="10. Pulsar el botón &quot;Registrar Asignacion&quot;" style="text;html=1;align=center;verticalAlign=middle;whiteSpace=wrap;rounded=0;" vertex="1" parent="1">
          <mxGeometry x="129.01" y="580" width="190" height="20" as="geometry" />
        </mxCell>
        <mxCell id="H9gai09tJhatRi1qsD84-14" value="" style="html=1;points=[[0,0,0,0,5],[0,1,0,0,-5],[1,0,0,0,5],[1,1,0,0,-5]];perimeter=orthogonalPerimeter;outlineConnect=0;targetShapes=umlLifeline;portConstraint=eastwest;newEdgeStyle={&quot;curved&quot;:0,&quot;rounded&quot;:0};" vertex="1" parent="1">
          <mxGeometry x="330" y="600" width="10" height="30" as="geometry" />
        </mxCell>
        <mxCell id="H9gai09tJhatRi1qsD84-15" value="" style="endArrow=classic;html=1;rounded=0;fontSize=12;startSize=8;endSize=8;curved=1;entryX=0;entryY=0;entryDx=0;entryDy=5;entryPerimeter=0;" edge="1" parent="1" target="H9gai09tJhatRi1qsD84-19">
          <mxGeometry width="50" height="50" relative="1" as="geometry">
            <mxPoint x="345" y="445" as="sourcePoint" />
            <mxPoint x="535" y="454.6899999999998" as="targetPoint" />
          </mxGeometry>
        </mxCell>
        <mxCell id="H9gai09tJhatRi1qsD84-16" value="7. Solicitar listado de recursos" style="text;html=1;align=center;verticalAlign=middle;whiteSpace=wrap;rounded=0;" vertex="1" parent="1">
          <mxGeometry x="365.94" y="420" width="149.5" height="20" as="geometry" />
        </mxCell>
        <mxCell id="H9gai09tJhatRi1qsD84-19" value="" style="html=1;points=[[0,0,0,0,5],[0,1,0,0,-5],[1,0,0,0,5],[1,1,0,0,-5]];perimeter=orthogonalPerimeter;outlineConnect=0;targetShapes=umlLifeline;portConstraint=eastwest;newEdgeStyle={&quot;curved&quot;:0,&quot;rounded&quot;:0};" vertex="1" parent="1">
          <mxGeometry x="540" y="440" width="10" height="30" as="geometry" />
        </mxCell>
        <mxCell id="H9gai09tJhatRi1qsD84-22" value="" style="endArrow=none;dashed=1;html=1;rounded=0;entryX=0.5;entryY=1;entryDx=0;entryDy=0;exitX=0.5;exitY=0;exitDx=0;exitDy=0;" edge="1" parent="1" source="M6st6zHzKp3r40aG8Qjw-7" target="H9gai09tJhatRi1qsD84-20">
          <mxGeometry width="50" height="50" relative="1" as="geometry">
            <mxPoint x="545" y="1110" as="sourcePoint" />
            <mxPoint x="540" y="140" as="targetPoint" />
          </mxGeometry>
        </mxCell>
        <mxCell id="H9gai09tJhatRi1qsD84-20" value="" style="html=1;points=[[0,0,0,0,5],[0,1,0,0,-5],[1,0,0,0,5],[1,1,0,0,-5]];perimeter=orthogonalPerimeter;outlineConnect=0;targetShapes=umlLifeline;portConstraint=eastwest;newEdgeStyle={&quot;curved&quot;:0,&quot;rounded&quot;:0};" vertex="1" parent="1">
          <mxGeometry x="540" y="440" width="10" height="30" as="geometry" />
        </mxCell>
        <mxCell id="H9gai09tJhatRi1qsD84-23" value="8. Devolver listado de recursos" style="text;html=1;align=center;verticalAlign=middle;whiteSpace=wrap;rounded=0;" vertex="1" parent="1">
          <mxGeometry x="352.3799999999999" y="460" width="169.38" height="30" as="geometry" />
        </mxCell>
        <mxCell id="H9gai09tJhatRi1qsD84-24" value="" style="endArrow=classic;html=1;rounded=0;fontSize=12;startSize=8;endSize=8;curved=1;entryX=1;entryY=0;entryDx=0;entryDy=5;entryPerimeter=0;" edge="1" parent="1" target="H9gai09tJhatRi1qsD84-25">
          <mxGeometry width="50" height="50" relative="1" as="geometry">
            <mxPoint x="545.5699999999999" y="485" as="sourcePoint" />
            <mxPoint x="360.57" y="490" as="targetPoint" />
          </mxGeometry>
        </mxCell>
        <mxCell id="H9gai09tJhatRi1qsD84-25" value="" style="html=1;points=[[0,0,0,0,5],[0,1,0,0,-5],[1,0,0,0,5],[1,1,0,0,-5]];perimeter=orthogonalPerimeter;outlineConnect=0;targetShapes=umlLifeline;portConstraint=eastwest;newEdgeStyle={&quot;curved&quot;:0,&quot;rounded&quot;:0};" vertex="1" parent="1">
          <mxGeometry x="341.82" y="480" width="10" height="30" as="geometry" />
        </mxCell>
      </root>
    </mxGraphModel>
  </diagram>
</mxfile>
